<svg xmlns="http://www.w3.org/2000/svg" viewBox="0 0 128 128" width="128" height="128">
  <defs>
    <radialGradient id="burst" cx="50%" cy="45%" r="65%">
      <stop offset="0%" stop-color="#fff3b0"/>
      <stop offset="35%" stop-color="#ffb703"/>
      <stop offset="75%" stop-color="#fb5607"/>
      <stop offset="100%" stop-color="#c1121f"/>
    </radialGradient>
    <filter id="shadow" x="-30%" y="-30%" width="160%" height="160%">
      <feDropShadow dx="0" dy="2" stdDeviation="2" flood-color="#3d0000" flood-opacity="0.6"/>
    </filter>
  </defs>

  <polygon
    points="64.0,4.0 72.8,31.2 94.0,12.0 88.0,40.0 116.0,34.0 96.8,55.2 124.0,64.0 96.8,72.8 116.0,94.0 88.0,88.0 94.0,116.0 72.8,96.8 64.0,124.0 55.2,96.8 34.0,116.0 40.0,88.0 12.0,94.0 31.2,72.8 4.0,64.0 31.2,55.2 12.0,34.0 40.0,40.0 34.0,12.0 55.2,31.2"
    fill="url(#burst)" stroke="#5c0a0a" stroke-width="3" stroke-linejoin="round" filter="url(#shadow)"/>

  <g transform="rotate(-8 64 72)">
    <text x="64" y="64" text-anchor="middle"
          font-family="Georgia, 'Times New Roman', serif" font-weight="900"
          font-size="32" fill="#2b0000" stroke="#2b0000" stroke-width="1">CRIT</text>
    <text x="63" y="62" text-anchor="middle"
          font-family="Georgia, 'Times New Roman', serif" font-weight="900"
          font-size="32" fill="#fff8e7">CRIT</text>

    <text x="64" y="92" text-anchor="middle"
          font-family="Georgia, 'Times New Roman', serif" font-weight="900"
          font-size="27" fill="#2b0000" stroke="#2b0000" stroke-width="1">LOG</text>
    <text x="63" y="90" text-anchor="middle"
          font-family="Georgia, 'Times New Roman', serif" font-weight="900"
          font-size="27" fill="#fff8e7">LOG</text>
  </g>
</svg>
